HIERARCHY
ROOT Hips
{
	OFFSET 0.000000 0.000000 0.000000 
	CHANNELS 6 Xposition Yposition Zposition Zrotation Yrotation Xrotation
	JOINT LeftUpLeg
	{
		OFFSET 1.363060 -1.794630 0.839290 
		CHANNELS 3 Zrotation Yrotation Xrotation
		JOINT LeftLeg
		{
			OFFSET 2.448110 -6.726130 0.000000 
			CHANNELS 3 Zrotation Yrotation Xrotation
			JOINT LeftFoot
			{
				OFFSET 2.562200 -7.039590 0.000000 
				CHANNELS 3 Zrotation Yrotation Xrotation
				JOINT LeftToeBase
				{
					OFFSET 0.157640 -0.433110 2.322550 
					CHANNELS 3 Zrotation Yrotation Xrotation
					End Site
					{
						OFFSET 0.000000 0.000000 0.000000 
					}
				}
			}
		}
	}
	JOINT RightUpLeg
	{
		OFFSET -1.305520 -1.794630 0.839290 
		CHANNELS 3 Zrotation Yrotation Xrotation
		JOINT RightLeg
		{
			OFFSET -2.542530 -6.985550 0.000000 
			CHANNELS 3 Zrotation Yrotation Xrotation
			JOINT RightFoot
			{
				OFFSET -2.568260 -7.056230 0.000000 
				CHANNELS 3 Zrotation Yrotation Xrotation
				JOINT RightToeBase
				{
					OFFSET -0.164730 -0.452590 2.363150 
					CHANNELS 3 Zrotation Yrotation Xrotation
					End Site
					{
						OFFSET 0.000000 0.000000 0.000000 
					}
				}
			}
		}
	}
	JOINT Spine
	{
		OFFSET 0.028270 2.035590 -0.193380 
		CHANNELS 3 Zrotation Yrotation Xrotation
		JOINT Spine1
		{
			OFFSET 0.056720 2.048850 -0.042750 
			CHANNELS 3 Zrotation Yrotation Xrotation
			JOINT Neck1
			{
				OFFSET -0.054170 1.746240 0.172020 
				CHANNELS 3 Zrotation Yrotation Xrotation
				JOINT Head
				{
					OFFSET 0.104070 1.761360 -0.123970 
					CHANNELS 3 Zrotation Yrotation Xrotation
					End Site
					{
						OFFSET 0.000000 0.000000 0.000000 
					}
				}
			}
			JOINT LeftArm
			{
				OFFSET 3.362410 1.200890 -0.311210 
				CHANNELS 3 Zrotation Yrotation Xrotation
				JOINT LeftForeArm
				{
					OFFSET 4.983000 -0.000000 -0.000000 
					CHANNELS 3 Zrotation Yrotation Xrotation
					JOINT LeftHand
					{
						OFFSET 3.483560 -0.000000 -0.000000 
						CHANNELS 3 Zrotation Yrotation Xrotation
						JOINT LeftHandIndex1
						{
							OFFSET 0.715260 -0.000000 -0.000000 
							CHANNELS 3 Zrotation Yrotation Xrotation
							End Site
							{
								OFFSET 0.000000 0.000000 0.000000 
							}
						}
					}
				}
			}
			JOINT RightArm
			{
				OFFSET -3.136600 1.374050 -0.404650 
				CHANNELS 3 Zrotation Yrotation Xrotation
				JOINT RightForeArm
				{
					OFFSET -5.241900 -0.000000 -0.000000 
					CHANNELS 3 Zrotation Yrotation Xrotation
					JOINT RightHand
					{
						OFFSET -3.444170 -0.000000 -0.000000 
						CHANNELS 3 Zrotation Yrotation Xrotation
						JOINT RightHandIndex1
						{
							OFFSET -0.622530 -0.000000 -0.000000 
							CHANNELS 3 Zrotation Yrotation Xrotation
							End Site
							{
								OFFSET 0.000000 0.000000 0.000000 
							}
						}
					}
				}
			}
		}
	}
}
MOTION
Frames: 12
Frame Time: 0.041667
0.583296 18.029941 -3.594044 7.837131 -67.764271 -6.618647 -2.879428 -5.314945 -20.649338 3.259523 11.609192 35.359949 -2.415466 9.982319 8.323010 0.284900 -3.433000 -9.486600 15.310848 17.687425 -10.296733 -4.435152 -10.953299 38.916914 2.221762 -8.903215 -7.144201 -0.246400 3.194200 -8.820000 -6.446964 4.240502 7.641473 0.814180 2.526555 -2.732747 11.656344 7.511568 26.203964 5.113200 4.303100 6.659500 -53.841864 -29.273766 18.490674 153.707648 -36.413352 -111.739226 0.444934 -0.586738 -19.347759 -7.125000 0.000000 0.000000 69.429865 34.737692 43.091112 -132.736020 52.384890 -100.280369 -1.175127 2.432574 -13.860129 7.125000 0.000000 0.000000 
0.600373 17.972392 -3.575683 8.425138 -68.093030 -7.265260 -3.189353 -5.314571 -20.635147 3.370000 11.728884 35.908026 -2.389732 9.748476 7.351416 0.357900 -3.843300 -10.636200 15.091367 17.992419 -10.698852 -4.681643 -11.215991 39.910601 2.031358 -8.482687 -7.625767 -0.235300 3.121800 -8.618000 -6.472111 4.309583 7.673559 0.911923 2.563148 -2.900353 11.817959 7.447788 26.162992 5.189300 4.284200 6.680900 -53.627845 -29.626630 18.487615 153.786380 -36.336655 -111.768681 0.440349 -0.579180 -18.904528 -7.125000 0.000000 0.000000 69.059729 34.881483 42.409547 -133.847210 51.769425 -100.952878 -1.214587 2.412594 -14.049517 7.125000 0.000000 0.000000 
0.617450 17.914348 -3.555151 9.120115 -68.440165 -8.018144 -3.537782 -5.281459 -20.602116 3.472366 11.843452 36.454423 -2.304516 9.353590 6.321839 0.373100 -3.923400 -10.861300 14.824124 18.273231 -11.095603 -4.929389 -11.475313 40.894473 1.817309 -7.995442 -8.059899 -0.205500 2.918700 -8.052400 -6.627628 4.375957 7.688126 0.960579 2.595856 -3.078545 11.849994 7.408386 25.976156 5.203000 4.269400 6.658600 -53.486868 -29.827258 18.637018 153.941147 -36.186172 -111.841228 0.436943 -0.570558 -18.302287 -7.125000 0.000000 0.000000 68.963738 35.025041 41.890247 -134.891754 51.170199 -101.604787 -1.250184 2.396871 -13.908310 7.125000 0.000000 0.000000 
0.636008 17.853936 -3.531460 9.385820 -68.828881 -8.330118 -3.756744 -5.180666 -20.614367 3.575258 11.960877 36.978405 -2.233292 9.018628 5.141547 0.405700 -4.089000 -11.327300 14.746603 18.493451 -11.578339 -5.181508 -11.721605 41.867020 1.697767 -7.762473 -8.501164 -0.232200 3.101400 -8.561200 -6.714407 4.466882 7.703699 0.911607 2.640119 -3.216063 11.863278 7.342932 25.667273 5.202300 4.237800 6.601600 -53.480749 -29.954546 18.925075 154.131585 -35.994143 -111.937948 0.436230 -0.563676 -17.567119 -7.125000 0.000000 0.000000 68.854518 35.117597 41.254758 -135.982736 50.519490 -102.289669 -1.280339 2.384107 -13.738622 7.125000 0.000000 0.000000 
0.656047 17.790957 -3.507473 9.112266 -69.190191 -8.086291 -3.792236 -5.090493 -20.691888 3.673756 12.071644 37.431048 -2.206386 8.853322 4.019722 0.489700 -4.487100 -12.451400 14.900631 18.668885 -12.132623 -5.439956 -11.955180 42.844893 1.644130 -7.723016 -9.043479 -0.282900 3.420700 -9.452200 -6.476888 4.505346 7.685477 0.929202 2.665991 -3.350548 11.664530 7.330005 25.172568 5.135900 4.205900 6.476100 -54.083305 -29.841885 19.656142 154.332691 -35.813304 -112.035487 0.436223 -0.558967 -16.121563 -7.125000 0.000000 0.000000 68.665650 35.151970 40.821415 -137.049425 49.879499 -102.930873 -1.316275 2.369377 -13.760239 7.125000 0.000000 0.000000 
0.676579 17.724918 -3.481807 9.319382 -69.543130 -8.365054 -3.980166 -5.004991 -20.687221 3.763596 12.167445 37.864843 -2.167886 8.674925 2.922474 0.654000 -5.172700 -14.401700 14.859318 18.960451 -12.562016 -5.697668 -12.189479 43.819952 1.484164 -7.417552 -9.672956 -0.252200 3.231400 -8.923600 -6.337818 4.534589 7.718582 0.975038 2.686332 -3.513688 11.565207 7.360927 24.461901 5.097500 4.195100 6.267900 -54.984588 -29.501804 20.809232 154.583090 -35.595178 -112.153773 0.435550 -0.551968 -14.162253 -7.125000 0.000000 0.000000 68.480589 35.137417 40.592942 -138.057301 49.277323 -103.503140 -1.362870 2.349699 -13.855923 7.125000 0.000000 0.000000 
0.695532 17.658089 -3.450219 9.804202 -69.959314 -9.027372 -4.253025 -4.885053 -20.533243 3.851961 12.257986 38.299623 -2.136456 8.537551 1.736865 0.964000 -6.251400 -17.515600 14.711555 19.329789 -12.791313 -5.950334 -12.413879 44.760289 1.285884 -6.993483 -10.195701 -0.229100 3.080600 -8.503200 -6.414116 4.612692 7.878342 0.918205 2.721209 -3.640215 11.438694 7.341276 23.941252 5.042000 4.172600 6.149800 -55.517168 -29.140372 21.651043 154.831130 -35.362724 -112.278059 0.436564 -0.545943 -12.742243 -7.125000 0.000000 0.000000 68.423764 35.107144 40.413215 -139.022357 48.693838 -104.035469 -1.412287 2.331913 -13.892925 7.125000 0.000000 0.000000 
0.717644 17.592346 -3.417249 9.993669 -70.370921 -9.459640 -4.434528 -4.767292 -20.382716 3.941424 12.354280 38.740229 -2.050449 8.274264 0.566790 1.012300 -6.401500 -17.953900 14.682672 19.543981 -12.989285 -6.193451 -12.618574 45.647587 1.174135 -6.775926 -10.569843 -0.245100 3.186100 -8.797200 -6.433945 4.712100 8.057361 0.821869 2.766002 -3.814184 11.174013 7.269239 23.609211 4.942600 4.124800 6.113600 -56.066053 -28.767105 22.334517 155.094567 -35.113288 -112.412470 0.438344 -0.541220 -11.770052 -7.125000 0.000000 0.000000 68.472923 35.074692 40.189978 -140.002886 48.072474 -104.595761 -1.457748 2.312397 -14.082304 7.125000 0.000000 0.000000 
0.738966 17.530157 -3.382107 10.057792 -70.684580 -9.725259 -4.604259 -4.684494 -20.317305 4.043369 12.462348 39.218912 -1.938564 7.963514 -0.527888 0.906600 -6.067600 -16.980600 14.665330 19.659484 -13.210099 -6.416610 -12.802955 46.458947 1.051891 -6.549660 -11.036452 -0.248000 3.204200 -8.847800 -6.293881 4.781038 8.155432 0.783647 2.803084 -4.022253 11.027562 7.223492 23.385995 4.902100 4.093100 6.091700 -56.896693 -28.236568 23.282772 155.471540 -34.758119 -112.598057 0.438208 -0.530833 -11.454129 -7.125000 0.000000 0.000000 68.397173 34.874518 39.887054 -140.985750 47.421638 -105.176431 -1.491683 2.291136 -14.434448 7.125000 0.000000 0.000000 
0.759103 17.473397 -3.346077 10.102478 -70.893360 -9.959081 -4.785655 -4.662558 -20.270156 4.174694 12.582712 39.735023 -2.047625 8.301652 -1.589480 1.333000 -7.311000 -20.640200 14.596908 19.704341 -13.418917 -6.620783 -12.969806 47.194477 0.909555 -6.261757 -11.455909 -0.242300 3.167900 -8.746400 -5.982940 4.742139 8.288646 0.838152 2.791260 -4.203117 10.815698 7.302086 23.104217 4.862900 4.110900 6.041300 -57.950189 -27.533693 24.145196 155.837891 -34.419974 -112.778037 0.438389 -0.523244 -11.460387 -7.125000 0.000000 0.000000 68.237748 34.646801 39.708818 -141.942949 46.768119 -105.736370 -1.523290 2.271515 -14.918445 7.125000 0.000000 0.000000 
0.781511 17.418315 -3.312021 10.107297 -71.123659 -10.122276 -4.937550 -4.619789 -20.292412 4.289782 12.703859 40.284288 -1.717551 7.406971 -2.510078 0.913600 -6.090400 -17.047000 14.515432 19.846324 -13.638887 -6.810240 -13.118628 47.865089 0.761092 -5.941940 -11.804186 -0.250800 3.222600 -8.899100 -5.739418 4.685568 8.447085 0.869449 2.768040 -4.338810 10.474147 7.424814 22.675799 4.764200 4.144000 5.948200 -59.131122 -26.710289 24.870158 156.082560 -34.211921 -112.902121 0.440545 -0.525674 -11.028038 -7.125000 0.000000 0.000000 68.237937 34.446927 39.653684 -142.874632 46.127991 -106.261117 -1.562670 2.251127 -15.343241 7.125000 0.000000 0.000000 
0.804808 17.363233 -3.275398 9.700858 -71.365932 -9.897176 -4.940794 -4.631318 -20.312808 4.413512 12.824029 40.774332 -1.679212 7.358433 -3.397559 1.041800 -6.491400 -18.217100 14.567976 20.059251 -13.777428 -6.975885 -13.235948 48.441203 0.608738 -5.596927 -12.096821 -0.251700 3.228100 -8.914500 -5.463821 4.691149 8.647027 0.796126 2.771962 -4.433638 10.173685 7.483855 22.290127 4.667000 4.155900 5.884900 -60.386112 -25.852835 25.805023 156.247722 -34.098382 -112.978355 0.440549 -0.526535 -9.940044 -7.125000 0.000000 0.000000 68.145543 34.106168 39.455877 -143.738343 45.521553 -106.745619 -1.593314 2.231905 -15.689449 7.125000 0.000000 0.000000 
